HIERARCHY
ROOT Hips
{
	OFFSET 0.000000 0.000000 0.000000
	CHANNELS 6 Xposition Yposition Zposition Zrotation Yrotation Xrotation 
	JOINT LowerBack
	{
		OFFSET 0.000000 0.000000 0.000000
		CHANNELS 3 Zrotation Yrotation Xrotation
		JOINT Spine
		{
			OFFSET 0.028270 2.035590 -0.193380
			CHANNELS 3 Zrotation Yrotation Xrotation
			JOINT Spine1
			{
				OFFSET 0.056720 2.048850 -0.042750
				CHANNELS 3 Zrotation Yrotation Xrotation
				JOINT Neck
				{
					OFFSET 0.000000 0.000000 0.000000
					CHANNELS 3 Zrotation Yrotation Xrotation
					JOINT Neck1
					{
						OFFSET -0.054170 1.746240 0.172020
						CHANNELS 3 Zrotation Yrotation Xrotation
						JOINT Head
						{
							OFFSET 0.104070 1.761360 -0.123970
							CHANNELS 3 Zrotation Yrotation Xrotation
							End Site
							{
								OFFSET 0.000000 0.000000 0.000000
							}
						}
					}
				}
				JOINT LeftShoulder
				{
					OFFSET 0.000000 0.000000 0.000000
					CHANNELS 3 Zrotation Yrotation Xrotation
					JOINT LeftArm
					{
						OFFSET 3.362410 1.200890 -0.311210
						CHANNELS 3 Zrotation Yrotation Xrotation
						JOINT LeftForeArm
						{
							OFFSET 4.983000 -0.000000 -0.000000
							CHANNELS 3 Zrotation Yrotation Xrotation
							JOINT LeftHand
							{
								OFFSET 3.483560 -0.000000 -0.000000
								CHANNELS 3 Zrotation Yrotation Xrotation
								JOINT LeftFingerBase
								{
									OFFSET 0.000000 0.000000 0.000000
									CHANNELS 3 Zrotation Yrotation Xrotation
									JOINT LeftHandIndex1
									{
										OFFSET 0.715260 -0.000000 -0.000000
										CHANNELS 3 Zrotation Yrotation Xrotation
										End Site
										{
											OFFSET 0.000000 0.000000 0.000000
										}
									}
								}
								JOINT LThumb
								{
									OFFSET 0.000000 0.000000 0.000000
									CHANNELS 3 Zrotation Yrotation Xrotation
									End Site
									{
										OFFSET 0.000000 0.000000 0.000000
									}
								}
							}
						}
					}
				}
				JOINT RightShoulder
				{
					OFFSET 0.000000 0.000000 0.000000
					CHANNELS 3 Zrotation Yrotation Xrotation
					JOINT RightArm
					{
						OFFSET -3.136600 1.374050 -0.404650
						CHANNELS 3 Zrotation Yrotation Xrotation
						JOINT RightForeArm
						{
							OFFSET -5.241900 -0.000000 -0.000000
							CHANNELS 3 Zrotation Yrotation Xrotation
							JOINT RightHand
							{
								OFFSET -3.444170 -0.000000 -0.000000
								CHANNELS 3 Zrotation Yrotation Xrotation
								JOINT RightFingerBase
								{
									OFFSET 0.000000 0.000000 0.000000
									CHANNELS 3 Zrotation Yrotation Xrotation
									JOINT RightHandIndex1
									{
										OFFSET -0.622530 -0.000000 -0.000000
										CHANNELS 3 Zrotation Yrotation Xrotation
										End Site
										{
											OFFSET 0.000000 0.000000 0.000000
										}
									}
								}
								JOINT RThumb
								{
									OFFSET 0.000000 0.000000 0.000000
									CHANNELS 3 Zrotation Yrotation Xrotation
									End Site
									{
										OFFSET 0.000000 0.000000 0.000000
									}
								}
							}
						}
					}
				}
			}
		}
	}
}
}
MOTION
Frames: 18
Frame Time: 0.008333
26.075969 15.071986 2.641413 -145.925734 -85.234842 179.489003 -5.680135 1.254287 6.584169 -2.115325 1.587494 -1.894679 -5.695520 1.573409 -0.780975 9.943481 -6.406894 -8.959351 -2.707857 -0.157270 -0.866227 0.000000 0.000000 0.000000 0.494041 15.901960 2.987249 -70.437490 25.680990 5.747651 -0.361964 -82.656632 0.000523 0.229903 -0.238593 -0.000273 -0.009403 0.141808 -0.000000 0.000000 0.000000 0.000000 0.000000 0.000000 0.000000 11.466679 1.355501 0.922132 63.045028 18.760249 13.896194 -0.071575 89.549929 -0.000757 -1.271028 6.150860 -0.076949 0.073753 -0.496743 -0.000000 0.000000 0.000000 0.000000 0.000000 0.000000 0.000000 
25.879100 15.052786 2.642500 -147.900769 -85.097126 -178.922787 -6.182528 1.272391 6.646950 -2.231220 1.615166 -1.897362 -5.753309 1.601336 -0.826752 10.058119 -6.271577 -8.880134 -2.732833 -0.160076 -0.843396 0.000000 0.000000 0.000000 0.387852 15.804649 2.976940 -70.150835 25.280853 5.669561 -0.374077 -82.501001 0.000286 0.340372 -0.207992 -0.000559 -0.012633 0.141009 -0.000000 0.000000 0.000000 0.000000 0.000000 0.000000 0.000000 11.671833 1.491979 0.939148 63.375403 18.537447 14.129581 -0.035707 88.994659 -0.000483 -1.223003 6.162236 -0.074147 0.071794 -0.494260 -0.000000 0.000000 0.000000 0.000000 0.000000 0.000000 0.000000 
25.683206 15.036040 2.644906 -149.356892 -84.960782 -177.841233 -6.621811 1.286232 6.701288 -2.332517 1.637158 -1.899600 -5.808494 1.623401 -0.865591 10.156675 -6.132134 -8.794182 -2.758307 -0.163008 -0.818457 0.000000 0.000000 0.000000 0.247792 15.710173 2.961135 -69.865879 24.782071 5.607225 -0.388227 -82.301977 0.000040 0.459820 -0.176520 -0.000741 -0.016185 0.140582 -0.000000 0.000000 0.000000 0.000000 0.000000 0.000000 0.000000 11.868181 1.619579 0.953088 63.729075 18.311892 14.374198 0.007434 88.317936 -0.000197 -1.173899 6.182825 -0.071350 0.069716 -0.490966 -0.000000 0.000000 0.000000 0.000000 0.000000 0.000000 0.000000 
25.488910 15.021661 2.648733 -150.335035 -84.818966 -177.218817 -6.997174 1.297355 6.740626 -2.419102 1.654980 -1.902602 -5.860565 1.641087 -0.896702 10.238800 -5.990344 -8.704793 -2.783596 -0.165975 -0.792234 0.000000 0.000000 0.000000 0.078309 15.623281 2.940470 -69.591319 24.185606 5.556778 -0.404437 -82.058927 -0.000220 0.583027 -0.144256 -0.000920 -0.019975 0.140546 -0.000000 0.000000 0.000000 0.000000 0.000000 0.000000 0.000000 12.052036 1.738311 0.963810 64.107120 18.084057 14.626780 0.057321 87.522283 0.000078 -1.126646 6.208923 -0.068755 0.067587 -0.486861 -0.000000 0.000000 0.000000 0.000000 0.000000 0.000000 0.000000 
25.296092 15.009605 2.653957 -150.875009 -84.667210 -177.007682 -7.308945 1.306663 6.759703 -2.491259 1.669593 -1.907919 -5.909686 1.655282 -0.921785 10.304990 -5.847974 -8.614129 -2.808565 -0.168946 -0.765287 0.000000 0.000000 0.000000 -0.120448 15.537834 2.915573 -69.332116 23.504677 5.506490 -0.422345 -81.780283 -0.000484 0.705414 -0.110807 -0.000998 -0.023889 0.140895 -0.000000 0.000000 0.000000 0.000000 0.000000 0.000000 0.000000 12.222852 1.847976 0.972846 64.508376 17.852093 14.882443 0.113149 86.613586 0.000319 -1.084633 6.236896 -0.066361 0.065514 -0.481984 -0.000000 0.000000 0.000000 0.000000 0.000000 0.000000 0.000000 
25.105300 14.999748 2.660579 -150.973146 -84.499760 -177.203658 -7.554938 1.315968 6.753500 -2.548675 1.682872 -1.915859 -5.955212 1.667879 -0.938024 10.356462 -5.704916 -8.528286 -2.832885 -0.171810 -0.739413 0.000000 0.000000 0.000000 -0.330779 15.470033 2.888522 -69.102554 22.720144 5.465411 -0.442705 -81.446935 -0.000748 0.824581 -0.076886 -0.000973 -0.027922 0.141715 -0.000000 0.000000 0.000000 0.000000 0.000000 0.000000 0.000000 12.379299 1.951821 0.979168 64.929707 17.611864 15.129344 0.173564 85.605594 0.000514 -1.048002 6.261690 -0.064270 0.063458 -0.476384 -0.000000 0.000000 0.000000 0.000000 0.000000 0.000000 0.000000 
24.916675 14.992301 2.667941 -150.975516 -84.332715 -177.459807 -7.765843 1.318362 6.727373 -2.597861 1.688646 -1.927715 -5.998427 1.672621 -0.955956 10.398294 -5.564574 -8.443404 -2.857847 -0.174716 -0.713707 0.000000 0.000000 0.000000 -0.572449 15.371876 2.859645 -68.887855 21.895496 5.390625 -0.463118 -81.114252 -0.001025 0.941019 -0.036946 -0.000847 -0.031884 0.142855 -0.000000 0.000000 0.000000 0.000000 0.000000 0.000000 0.000000 12.533004 2.043428 0.989557 65.370230 17.366751 15.371340 0.237987 84.501154 0.000625 -1.024782 6.282389 -0.062979 0.061685 -0.470182 -0.000000 0.000000 0.000000 0.000000 0.000000 0.000000 0.000000 
24.730775 14.987099 2.676365 -150.620664 -84.148652 -178.029546 -7.918079 1.321438 6.677466 -2.634222 1.694107 -1.941533 -6.037946 1.676843 -0.964410 10.430494 -5.422315 -8.372070 -2.882902 -0.177432 -0.691992 0.000000 0.000000 0.000000 -0.800801 15.303609 2.832696 -68.718992 20.947271 5.332740 -0.486670 -80.707313 -0.001309 1.056431 0.005371 -0.000620 -0.035972 0.144573 -0.000000 0.000000 0.000000 0.000000 0.000000 0.000000 0.000000 12.678953 2.134867 0.998320 65.819279 17.105186 15.580993 0.303950 83.330320 0.000680 -1.006212 6.292227 -0.061791 0.059859 -0.463440 -0.000000 0.000000 0.000000 0.000000 0.000000 0.000000 0.000000 
24.547516 14.984549 2.685003 -150.304056 -83.968857 -178.522905 -8.048817 1.316982 6.612886 -2.665738 1.691873 -1.959334 -6.076332 1.672990 -0.979432 10.458758 -5.281947 -8.305172 -2.910291 -0.180261 -0.671820 0.000000 0.000000 0.000000 -1.047171 15.189515 2.807031 -68.570276 19.972030 5.231011 -0.509742 -80.306388 -0.001631 1.175171 0.056127 -0.000292 -0.039932 0.146628 -0.000000 0.000000 0.000000 0.000000 0.000000 0.000000 0.000000 12.833704 2.217502 1.015226 66.273942 16.830941 15.767585 0.371123 82.095125 0.000641 -1.002257 6.292641 -0.061404 0.058312 -0.456325 -0.000000 0.000000 0.000000 0.000000 0.000000 0.000000 0.000000 
24.367638 14.984679 2.694126 -149.830385 -83.780920 -179.135513 -8.139622 1.310929 6.538755 -2.688920 1.687457 -1.978543 -6.113387 1.666701 -0.994788 10.483233 -5.139227 -8.250361 -2.940246 -0.183094 -0.655694 0.000000 0.000000 0.000000 -1.285496 15.068561 2.785044 -68.457089 18.912744 5.122198 -0.534265 -79.863050 -0.002009 1.303265 0.115560 0.000336 -0.043940 0.149162 -0.000000 0.000000 0.000000 0.000000 0.000000 0.000000 0.000000 12.996470 2.300853 1.037209 66.722791 16.536058 15.909857 0.437407 80.822528 0.000546 -1.003809 6.280043 -0.061218 0.056755 -0.448921 -0.000000 0.000000 0.000000 0.000000 0.000000 0.000000 0.000000 
24.191245 14.987792 2.703388 -149.324582 -83.591951 -179.747692 -8.202477 1.301404 6.464349 -2.706496 1.679189 -1.998755 -6.150530 1.656265 -1.016506 10.506526 -4.994010 -8.204266 -2.974217 -0.186078 -0.642875 0.000000 0.000000 0.000000 -1.523863 14.914836 2.766897 -68.367556 17.798623 4.991272 -0.558959 -79.401837 -0.002470 1.447948 0.186391 0.001165 -0.047957 0.152092 -0.000000 0.000000 0.000000 0.000000 0.000000 0.000000 0.000000 13.176321 2.383744 1.068093 67.158233 16.220014 16.006532 0.501992 79.523721 0.000392 -1.012219 6.255810 -0.061434 0.055235 -0.441352 0.000000 0.000000 0.000000 0.000000 0.000000 0.000000 0.000000 
24.018570 14.994059 2.712829 -148.774290 -83.401301 179.621368 -8.236222 1.289257 6.399645 -2.718234 1.667835 -2.016619 -6.187866 1.642664 -1.039833 10.530419 -4.846169 -8.171295 -3.012513 -0.189148 -0.634944 0.000000 0.000000 0.000000 -1.751108 14.756125 2.753452 -68.300806 16.590512 4.868073 -0.584996 -78.896890 -0.003047 1.617911 0.269680 0.002495 -0.052196 0.155479 -0.000000 0.000000 0.000000 0.000000 0.000000 0.000000 0.000000 13.376711 2.467382 1.105684 67.572010 15.885659 16.051100 0.563689 78.214829 0.000207 -1.021750 6.220773 -0.061452 0.053593 -0.433687 -0.000000 0.000000 0.000000 0.000000 0.000000 0.000000 0.000000 
23.849526 15.003769 2.722052 -148.354569 -83.219544 179.140617 -8.258579 1.271117 6.348685 -2.728177 1.650383 -2.035316 -6.228258 1.622540 -1.079541 10.556404 -4.692070 -8.137018 -3.057211 -0.192685 -0.627638 0.000000 0.000000 0.000000 -1.991932 14.519069 2.743354 -68.233479 15.383099 4.701071 -0.608909 -78.415817 -0.003764 1.819102 0.365511 0.004223 -0.056407 0.159109 -0.000000 0.000000 0.000000 0.000000 0.000000 0.000000 0.000000 13.607151 2.550920 1.157148 67.960093 15.525237 16.050108 0.622534 76.898265 -0.000029 -1.038134 6.178612 -0.061870 0.051996 -0.426047 -0.000000 0.000000 0.000000 0.000000 0.000000 0.000000 0.000000 
23.684552 15.016950 2.731528 -147.889860 -83.037296 178.627553 -8.248387 1.250950 6.321349 -2.731817 1.630217 -2.049940 -6.271190 1.599613 -1.124604 10.583010 -4.533288 -8.108783 -3.107399 -0.196483 -0.623289 0.000000 0.000000 0.000000 -2.232961 14.260664 2.736688 -68.167383 14.102685 4.544594 -0.633064 -77.910164 -0.004655 2.057714 0.474495 0.006653 -0.060903 0.163090 -0.000000 0.000000 0.000000 0.000000 0.000000 0.000000 0.000000 13.862710 2.634970 1.216684 68.314655 15.145504 15.997335 0.677628 75.587664 -0.000268 -1.052195 6.132220 -0.062092 0.050220 -0.418437 0.000000 0.000000 0.000000 0.000000 0.000000 0.000000 0.000000 
23.523120 15.033573 2.741308 -147.408138 -82.857100 178.103579 -8.207326 1.227469 6.321601 -2.729302 1.606102 -2.058260 -6.316971 1.572851 -1.169655 10.611654 -4.373811 -8.088031 -3.162497 -0.200469 -0.622290 0.000000 0.000000 0.000000 -2.473084 14.003865 2.732463 -68.092901 12.725851 4.423597 -0.658320 -77.368985 -0.005750 2.338742 0.595136 0.009884 -0.065883 0.167427 -0.000000 0.000000 0.000000 0.000000 0.000000 0.000000 0.000000 14.143713 2.714005 1.281358 68.633071 14.755320 15.899954 0.728941 74.285174 -0.000502 -1.063233 6.086290 -0.062116 0.048270 -0.410865 0.000000 0.000000 0.000000 0.000000 0.000000 0.000000 0.000000 
23.365281 15.053681 2.751172 -147.019571 -82.686592 177.676720 -8.146291 1.198362 6.345076 -2.723197 1.575975 -2.065522 -6.367937 1.539681 -1.230182 10.641398 -4.203944 -8.055088 -3.223662 -0.205040 -0.618532 0.000000 0.000000 0.000000 -2.731601 13.666904 2.729455 -67.991805 11.363520 4.280714 -0.680877 -76.863353 -0.007053 2.661358 0.721651 0.014013 -0.070978 0.171936 -0.000000 0.000000 0.000000 0.000000 0.000000 0.000000 0.000000 14.450977 2.792736 1.356740 68.917001 14.335341 15.760515 0.776706 72.990087 -0.000754 -1.076723 6.044546 -0.062340 0.046265 -0.403407 0.000000 0.000000 0.000000 0.000000 0.000000 0.000000 0.000000 
23.210487 15.076935 2.761548 -146.588336 -82.520092 177.207821 -8.047615 1.165129 6.395262 -2.709366 1.540960 -2.066127 -6.422738 1.501779 -1.287992 10.672369 -4.034719 -8.022079 -3.288161 -0.209792 -0.615485 0.000000 0.000000 0.000000 -2.995050 13.333531 2.726564 -67.865497 9.918163 4.186978 -0.704377 -76.334534 -0.008582 3.024640 0.853865 0.019244 -0.076612 0.176742 -0.000000 0.000000 0.000000 0.000000 0.000000 0.000000 0.000000 14.775767 2.861291 1.433854 69.164971 13.905921 15.586242 0.820980 71.703770 -0.000995 -1.088918 6.013641 -0.062565 0.044156 -0.396010 0.000000 0.000000 0.000000 0.000000 0.000000 0.000000 0.000000 
23.058801 15.103069 2.772382 -146.136583 -82.361302 176.716743 -7.913232 1.126395 6.467159 -2.688167 1.499787 -2.062014 -6.482009 1.457750 -1.346056 10.704419 -3.864205 -7.980940 -3.355108 -0.214786 -0.610403 0.000000 0.000000 0.000000 -3.266834 12.981919 2.722865 -67.706891 8.428371 4.129612 -0.727799 -75.807388 -0.010331 3.423410 0.986127 0.025574 -0.082663 0.181793 -0.000000 0.000000 0.000000 0.000000 0.000000 0.000000 0.000000 15.112576 2.919197 1.512502 69.380069 13.460607 15.381068 0.861987 70.425087 -0.001246 -1.104616 5.998250 -0.063090 0.042044 -0.388698 0.000000 0.000000 0.000000 0.000000 0.000000 0.000000 0.000000 
